<?xml version="1.0" encoding="UTF-8" standalone="no"?>
<svg
   xmlns:dc="http://purl.org/dc/elements/1.1/"
   xmlns:cc="http://creativecommons.org/ns#"
   xmlns:rdf="http://www.w3.org/1999/02/22-rdf-syntax-ns#"
   xmlns:svg="http://www.w3.org/2000/svg"
   xmlns="http://www.w3.org/2000/svg"
   xmlns:sodipodi="http://sodipodi.sourceforge.net/DTD/sodipodi-0.dtd"
   xmlns:inkscape="http://www.inkscape.org/namespaces/inkscape"
   width="391px"
   height="201px"
   version="1.1"
   id="svg2"
   inkscape:version="0.48.4 r9939"
   sodipodi:docname="gates.svg">
  <metadata
     id="metadata26">
    <rdf:RDF>
      <cc:Work
         rdf:about="">
        <dc:format>image/svg+xml</dc:format>
        <dc:type
           rdf:resource="http://purl.org/dc/dcmitype/StillImage" />
      </cc:Work>
    </rdf:RDF>
  </metadata>
  <sodipodi:namedview
     pagecolor="#ffffff"
     bordercolor="#666666"
     borderopacity="1"
     objecttolerance="10"
     gridtolerance="10"
     guidetolerance="10"
     inkscape:pageopacity="0"
     inkscape:pageshadow="2"
     inkscape:window-width="3840"
     inkscape:window-height="2059"
     id="namedview24"
     showgrid="false"
     inkscape:zoom="4.4994416"
     inkscape:cx="66.948775"
     inkscape:cy="88.079416"
     inkscape:window-x="0"
     inkscape:window-y="28"
     inkscape:window-maximized="1"
     inkscape:current-layer="svg2" />
  <defs
     id="defs4" />
  <g
     transform="matrix(0.87202068,0,0,0.83805919,31.235952,27.25318)"
     id="g6">
    <path
       d="M 21,1 81,31 21,61 z M 1,31 21,31 m 64,0 16,0"
       stroke-miterlimit="10"
       pointer-events="none"
       id="path8"
       inkscape:connector-curvature="0"
       style="fill:#ffe599;stroke:#000000;stroke-miterlimit:10" />
    <ellipse
       cx="83"
       cy="31"
       rx="2"
       ry="2"
       pointer-events="none"
       id="ellipse10"
       d="m 85,31 c 0,1.104569 -0.895431,2 -2,2 -1.104569,0 -2,-0.895431 -2,-2 0,-1.104569 0.895431,-2 2,-2 1.104569,0 2,0.895431 2,2 z"
       sodipodi:cx="83"
       sodipodi:cy="31"
       sodipodi:rx="2"
       sodipodi:ry="2"
       style="fill:#ffe599;stroke:#000000" />
    <path
       d="m 299,1 25,0 c 17.44,0.54 33.03,12.23 40,30 -6.97,17.77 -22.56,29.46 -40,30 l -25,0 c 10.72,-18.56 10.72,-41.44 0,-60 z"
       stroke-miterlimit="10"
       pointer-events="none"
       id="path12"
       inkscape:connector-curvature="0"
       style="fill:#ffe599;stroke:#000000;stroke-miterlimit:10" />
    <path
       d="m 284,11 20,0 m -20,40 20,0 m 60,-20 20,0"
       stroke-miterlimit="10"
       pointer-events="none"
       id="path14"
       inkscape:connector-curvature="0"
       style="fill:none;stroke:#000000;stroke-miterlimit:10" />
    <path
       d="m 21,131 30,0 c 16.57,0 30,13.43 30,30 0,16.57 -13.43,30 -30,30 l -30,0 z"
       stroke-miterlimit="10"
       pointer-events="none"
       id="path16"
       inkscape:connector-curvature="0"
       style="fill:#ffe599;stroke:#000000;stroke-miterlimit:10" />
    <path
       d="m 1,141 20,0 m -20,40 20,0 m 60,-20 20,0"
       stroke-miterlimit="10"
       pointer-events="none"
       id="path18"
       inkscape:connector-curvature="0"
       style="fill:none;stroke:#000000;stroke-miterlimit:10" />
    <path
       d="m 304,139 25,0 c 17.44,0.54 33.03,12.23 40,30 -6.97,17.77 -22.56,29.46 -40,30 l -25,0 c 10.72,-18.56 10.72,-41.44 0,-60 z"
       stroke-miterlimit="10"
       pointer-events="none"
       id="path20"
       inkscape:connector-curvature="0"
       style="fill:#ffe599;stroke:#000000;stroke-miterlimit:10" />
    <path
       d="m 289,149 20,0 m -20,40 20,0 m 60,-20 20,0 m -90,-30 c 10.72,18.56 10.72,41.44 0,60"
       stroke-miterlimit="10"
       pointer-events="none"
       id="path22"
       inkscape:connector-curvature="0"
       style="fill:none;stroke:#000000;stroke-miterlimit:10" />
  </g>
  <text
     xml:space="preserve"
     style="font-size:40px;font-style:normal;font-weight:normal;line-height:125%;letter-spacing:0px;word-spacing:0px;fill:#000000;fill-opacity:1;stroke:none;font-family:Sans"
     x="31.560463"
     y="8.7541714"
     id="text3003"
     sodipodi:linespacing="125%"><tspan
       sodipodi:role="line"
       id="tspan3005"
       x="31.560463"
       y="8.7541714"
       style="font-size:10px">        porta NOT </tspan><tspan
       sodipodi:role="line"
       x="31.560463"
       y="21.254171"
       style="font-size:10px"
       id="tspan3007">(lógica de inversão)</tspan></text>
  <text
     xml:space="preserve"
     style="font-size:40px;font-style:normal;font-weight:normal;line-height:125%;letter-spacing:0px;word-spacing:0px;fill:#000000;fill-opacity:1;stroke:none;font-family:Sans"
     x="265.55603"
     y="10.73057"
     id="text3003-0"
     sodipodi:linespacing="125%"><tspan
       sodipodi:role="line"
       id="tspan3005-9"
       x="265.55603"
       y="10.73057"
       style="font-size:10px">        porta OR </tspan><tspan
       sodipodi:role="line"
       x="265.55603"
       y="23.23057"
       style="font-size:10px"
       id="tspan3007-1">(lógica de disjunção)</tspan></text>
  <text
     xml:space="preserve"
     style="font-size:40px;font-style:normal;font-weight:normal;line-height:125%;letter-spacing:0px;word-spacing:0px;fill:#000000;fill-opacity:1;stroke:none;font-family:Sans"
     x="20.759773"
     y="111.84207"
     id="text3003-0-9"
     sodipodi:linespacing="125%"><tspan
       sodipodi:role="line"
       id="tspan3005-9-9"
       x="20.759773"
       y="111.84207"
       style="font-size:10px">        porta AND </tspan><tspan
       sodipodi:role="line"
       x="20.759773"
       y="124.34207"
       style="font-size:10px"
       id="tspan3007-1-5">(lógica de conjunção)</tspan></text>
  <text
     xml:space="preserve"
     style="font-size:40px;font-style:normal;font-weight:normal;line-height:125%;letter-spacing:0px;word-spacing:0px;fill:#000000;fill-opacity:1;stroke:none;font-family:Sans"
     x="268.75952"
     y="123.63396"
     id="text3003-0-2"
     sodipodi:linespacing="125%"><tspan
       sodipodi:role="line"
       id="tspan3005-9-5"
       x="268.75952"
       y="123.63396"
       style="font-size:10px">        porta XOR </tspan><tspan
       sodipodi:role="line"
       x="268.75952"
       y="136.13396"
       style="font-size:10px"
       id="tspan3007-1-1">(lógica de exclusão)</tspan></text>
</svg>
